<mxfile host="app.diagrams.net" modified="2024-02-05T20:58:23.444Z" agent="Mozilla/5.0 (Macintosh; Intel Mac OS X 10_15_7) AppleWebKit/537.36 (KHTML, like Gecko) Chrome/121.0.0.0 Safari/537.36" etag="kjwffo21CuSVHOstDqRy" version="23.1.1" type="device">
  <diagram name="Страница — 1" id="R4vX-fNru7ML8oTUG_PV">
    <mxGraphModel dx="6572" dy="2229" grid="1" gridSize="10" guides="1" tooltips="1" connect="1" arrows="1" fold="1" page="1" pageScale="1" pageWidth="827" pageHeight="1169" math="0" shadow="0">
      <root>
        <mxCell id="0" />
        <mxCell id="1" parent="0" />
        <mxCell id="w3lTB2FBsFpzuOI5no9S-1" style="edgeStyle=orthogonalEdgeStyle;rounded=0;orthogonalLoop=1;jettySize=auto;html=1;exitX=0.5;exitY=1;exitDx=0;exitDy=0;entryX=0.5;entryY=0;entryDx=0;entryDy=0;" parent="1" source="w3lTB2FBsFpzuOI5no9S-3" target="w3lTB2FBsFpzuOI5no9S-9" edge="1">
          <mxGeometry relative="1" as="geometry" />
        </mxCell>
        <mxCell id="w3lTB2FBsFpzuOI5no9S-2" style="edgeStyle=orthogonalEdgeStyle;rounded=0;orthogonalLoop=1;jettySize=auto;html=1;exitX=0.5;exitY=1;exitDx=0;exitDy=0;entryX=0.5;entryY=0;entryDx=0;entryDy=0;" parent="1" source="w3lTB2FBsFpzuOI5no9S-3" target="w3lTB2FBsFpzuOI5no9S-6" edge="1">
          <mxGeometry relative="1" as="geometry" />
        </mxCell>
        <mxCell id="w3lTB2FBsFpzuOI5no9S-3" value="Ценные бумаги" style="rounded=0;whiteSpace=wrap;html=1;" parent="1" vertex="1">
          <mxGeometry x="910" y="30" width="120" height="60" as="geometry" />
        </mxCell>
        <mxCell id="w3lTB2FBsFpzuOI5no9S-4" style="edgeStyle=orthogonalEdgeStyle;rounded=0;orthogonalLoop=1;jettySize=auto;html=1;exitX=0.5;exitY=1;exitDx=0;exitDy=0;entryX=0.5;entryY=0;entryDx=0;entryDy=0;" parent="1" source="w3lTB2FBsFpzuOI5no9S-6" edge="1">
          <mxGeometry relative="1" as="geometry">
            <mxPoint x="643" y="350" as="targetPoint" />
          </mxGeometry>
        </mxCell>
        <mxCell id="w3lTB2FBsFpzuOI5no9S-5" style="edgeStyle=orthogonalEdgeStyle;rounded=0;orthogonalLoop=1;jettySize=auto;html=1;exitX=0.5;exitY=1;exitDx=0;exitDy=0;" parent="1" source="w3lTB2FBsFpzuOI5no9S-6" edge="1">
          <mxGeometry relative="1" as="geometry">
            <mxPoint x="-140.00000000000045" y="350" as="targetPoint" />
          </mxGeometry>
        </mxCell>
        <mxCell id="w3lTB2FBsFpzuOI5no9S-6" value="Акции" style="rounded=0;whiteSpace=wrap;html=1;" parent="1" vertex="1">
          <mxGeometry x="190" y="200" width="120" height="60" as="geometry" />
        </mxCell>
        <mxCell id="w3lTB2FBsFpzuOI5no9S-7" style="edgeStyle=orthogonalEdgeStyle;rounded=0;orthogonalLoop=1;jettySize=auto;html=1;exitX=0.5;exitY=1;exitDx=0;exitDy=0;" parent="1" source="w3lTB2FBsFpzuOI5no9S-9" target="w3lTB2FBsFpzuOI5no9S-89" edge="1">
          <mxGeometry relative="1" as="geometry" />
        </mxCell>
        <mxCell id="w3lTB2FBsFpzuOI5no9S-8" style="edgeStyle=orthogonalEdgeStyle;rounded=0;orthogonalLoop=1;jettySize=auto;html=1;exitX=0.5;exitY=1;exitDx=0;exitDy=0;" parent="1" source="w3lTB2FBsFpzuOI5no9S-9" target="w3lTB2FBsFpzuOI5no9S-86" edge="1">
          <mxGeometry relative="1" as="geometry" />
        </mxCell>
        <mxCell id="w3lTB2FBsFpzuOI5no9S-9" value="Облигации" style="rounded=0;whiteSpace=wrap;html=1;" parent="1" vertex="1">
          <mxGeometry x="1660" y="200" width="120" height="60" as="geometry" />
        </mxCell>
        <mxCell id="w3lTB2FBsFpzuOI5no9S-10" style="edgeStyle=orthogonalEdgeStyle;rounded=0;orthogonalLoop=1;jettySize=auto;html=1;exitX=0.5;exitY=1;exitDx=0;exitDy=0;" parent="1" source="w3lTB2FBsFpzuOI5no9S-13" target="w3lTB2FBsFpzuOI5no9S-35" edge="1">
          <mxGeometry relative="1" as="geometry" />
        </mxCell>
        <mxCell id="w3lTB2FBsFpzuOI5no9S-11" style="edgeStyle=orthogonalEdgeStyle;rounded=0;orthogonalLoop=1;jettySize=auto;html=1;exitX=0.5;exitY=1;exitDx=0;exitDy=0;" parent="1" source="w3lTB2FBsFpzuOI5no9S-13" target="w3lTB2FBsFpzuOI5no9S-41" edge="1">
          <mxGeometry relative="1" as="geometry" />
        </mxCell>
        <mxCell id="w3lTB2FBsFpzuOI5no9S-12" style="edgeStyle=orthogonalEdgeStyle;rounded=0;orthogonalLoop=1;jettySize=auto;html=1;exitX=0.5;exitY=1;exitDx=0;exitDy=0;" parent="1" source="w3lTB2FBsFpzuOI5no9S-13" target="w3lTB2FBsFpzuOI5no9S-47" edge="1">
          <mxGeometry relative="1" as="geometry" />
        </mxCell>
        <mxCell id="w3lTB2FBsFpzuOI5no9S-13" value="Потребительский&lt;span style=&quot;white-space: pre;&quot;&gt;&#x9;&lt;/span&gt;&lt;br&gt;сектор&lt;br&gt;" style="rounded=0;whiteSpace=wrap;html=1;" parent="1" vertex="1">
          <mxGeometry x="-550" y="440" width="120" height="60" as="geometry" />
        </mxCell>
        <mxCell id="w3lTB2FBsFpzuOI5no9S-14" style="edgeStyle=orthogonalEdgeStyle;rounded=0;orthogonalLoop=1;jettySize=auto;html=1;exitX=0.5;exitY=1;exitDx=0;exitDy=0;" parent="1" source="w3lTB2FBsFpzuOI5no9S-16" target="w3lTB2FBsFpzuOI5no9S-53" edge="1">
          <mxGeometry relative="1" as="geometry" />
        </mxCell>
        <mxCell id="w3lTB2FBsFpzuOI5no9S-15" style="edgeStyle=orthogonalEdgeStyle;rounded=0;orthogonalLoop=1;jettySize=auto;html=1;exitX=0.5;exitY=1;exitDx=0;exitDy=0;" parent="1" source="w3lTB2FBsFpzuOI5no9S-16" target="w3lTB2FBsFpzuOI5no9S-59" edge="1">
          <mxGeometry relative="1" as="geometry" />
        </mxCell>
        <mxCell id="w3lTB2FBsFpzuOI5no9S-16" value="Банковский сектор" style="rounded=0;whiteSpace=wrap;html=1;" parent="1" vertex="1">
          <mxGeometry x="-190" y="440" width="120" height="60" as="geometry" />
        </mxCell>
        <mxCell id="w3lTB2FBsFpzuOI5no9S-17" style="edgeStyle=orthogonalEdgeStyle;rounded=0;orthogonalLoop=1;jettySize=auto;html=1;exitX=0.5;exitY=1;exitDx=0;exitDy=0;" parent="1" source="w3lTB2FBsFpzuOI5no9S-19" target="w3lTB2FBsFpzuOI5no9S-65" edge="1">
          <mxGeometry relative="1" as="geometry" />
        </mxCell>
        <mxCell id="w3lTB2FBsFpzuOI5no9S-18" style="edgeStyle=orthogonalEdgeStyle;rounded=0;orthogonalLoop=1;jettySize=auto;html=1;exitX=0.5;exitY=1;exitDx=0;exitDy=0;" parent="1" source="w3lTB2FBsFpzuOI5no9S-19" edge="1">
          <mxGeometry relative="1" as="geometry">
            <mxPoint x="244.99999999999955" y="590" as="targetPoint" />
          </mxGeometry>
        </mxCell>
        <mxCell id="w3lTB2FBsFpzuOI5no9S-19" value="Энергетический сектор" style="rounded=0;whiteSpace=wrap;html=1;" parent="1" vertex="1">
          <mxGeometry x="110" y="440" width="120" height="60" as="geometry" />
        </mxCell>
        <mxCell id="w3lTB2FBsFpzuOI5no9S-20" style="edgeStyle=orthogonalEdgeStyle;rounded=0;orthogonalLoop=1;jettySize=auto;html=1;exitX=0.5;exitY=1;exitDx=0;exitDy=0;" parent="1" target="w3lTB2FBsFpzuOI5no9S-16" edge="1">
          <mxGeometry relative="1" as="geometry">
            <mxPoint x="-130" y="350" as="sourcePoint" />
          </mxGeometry>
        </mxCell>
        <mxCell id="w3lTB2FBsFpzuOI5no9S-21" style="edgeStyle=orthogonalEdgeStyle;rounded=0;orthogonalLoop=1;jettySize=auto;html=1;exitX=0.5;exitY=1;exitDx=0;exitDy=0;" parent="1" edge="1">
          <mxGeometry relative="1" as="geometry">
            <mxPoint x="-490" y="440" as="targetPoint" />
            <mxPoint x="-130" y="350" as="sourcePoint" />
          </mxGeometry>
        </mxCell>
        <mxCell id="w3lTB2FBsFpzuOI5no9S-22" style="edgeStyle=orthogonalEdgeStyle;rounded=0;orthogonalLoop=1;jettySize=auto;html=1;exitX=0.5;exitY=1;exitDx=0;exitDy=0;" parent="1" target="w3lTB2FBsFpzuOI5no9S-19" edge="1">
          <mxGeometry relative="1" as="geometry">
            <mxPoint x="-130" y="350" as="sourcePoint" />
          </mxGeometry>
        </mxCell>
        <mxCell id="w3lTB2FBsFpzuOI5no9S-24" style="edgeStyle=orthogonalEdgeStyle;rounded=0;orthogonalLoop=1;jettySize=auto;html=1;exitX=0.5;exitY=1;exitDx=0;exitDy=0;" parent="1" target="w3lTB2FBsFpzuOI5no9S-256" edge="1">
          <mxGeometry relative="1" as="geometry">
            <mxPoint x="653" y="350" as="sourcePoint" />
          </mxGeometry>
        </mxCell>
        <mxCell id="w3lTB2FBsFpzuOI5no9S-25" style="edgeStyle=orthogonalEdgeStyle;rounded=0;orthogonalLoop=1;jettySize=auto;html=1;exitX=0.5;exitY=1;exitDx=0;exitDy=0;" parent="1" target="w3lTB2FBsFpzuOI5no9S-29" edge="1">
          <mxGeometry relative="1" as="geometry">
            <mxPoint x="653" y="350" as="sourcePoint" />
          </mxGeometry>
        </mxCell>
        <mxCell id="w3lTB2FBsFpzuOI5no9S-27" style="edgeStyle=orthogonalEdgeStyle;rounded=0;orthogonalLoop=1;jettySize=auto;html=1;exitX=0.5;exitY=1;exitDx=0;exitDy=0;" parent="1" source="w3lTB2FBsFpzuOI5no9S-29" target="w3lTB2FBsFpzuOI5no9S-77" edge="1">
          <mxGeometry relative="1" as="geometry" />
        </mxCell>
        <mxCell id="w3lTB2FBsFpzuOI5no9S-28" style="edgeStyle=orthogonalEdgeStyle;rounded=0;orthogonalLoop=1;jettySize=auto;html=1;exitX=0.5;exitY=1;exitDx=0;exitDy=0;" parent="1" source="w3lTB2FBsFpzuOI5no9S-29" target="w3lTB2FBsFpzuOI5no9S-83" edge="1">
          <mxGeometry relative="1" as="geometry" />
        </mxCell>
        <mxCell id="w3lTB2FBsFpzuOI5no9S-29" value="Медицина" style="rounded=0;whiteSpace=wrap;html=1;" parent="1" vertex="1">
          <mxGeometry x="440" y="440" width="120" height="60" as="geometry" />
        </mxCell>
        <mxCell id="w3lTB2FBsFpzuOI5no9S-35" value="Macy,s" style="rounded=0;whiteSpace=wrap;html=1;" parent="1" vertex="1">
          <mxGeometry x="-410" y="590" width="120" height="60" as="geometry" />
        </mxCell>
        <mxCell id="w3lTB2FBsFpzuOI5no9S-41" value="X5" style="rounded=0;whiteSpace=wrap;html=1;" parent="1" vertex="1">
          <mxGeometry x="-550" y="590" width="120" height="60" as="geometry" />
        </mxCell>
        <mxCell id="w3lTB2FBsFpzuOI5no9S-47" value="Магнит" style="rounded=0;whiteSpace=wrap;html=1;" parent="1" vertex="1">
          <mxGeometry x="-710" y="590" width="120" height="60" as="geometry" />
        </mxCell>
        <mxCell id="w3lTB2FBsFpzuOI5no9S-53" value="BoA" style="rounded=0;whiteSpace=wrap;html=1;" parent="1" vertex="1">
          <mxGeometry x="-260" y="590" width="120" height="60" as="geometry" />
        </mxCell>
        <mxCell id="w3lTB2FBsFpzuOI5no9S-59" value="Сбер" style="rounded=0;whiteSpace=wrap;html=1;" parent="1" vertex="1">
          <mxGeometry x="-120" y="590" width="120" height="60" as="geometry" />
        </mxCell>
        <mxCell id="w3lTB2FBsFpzuOI5no9S-65" value="Лукойл" style="rounded=0;whiteSpace=wrap;html=1;" parent="1" vertex="1">
          <mxGeometry x="35" y="590" width="120" height="60" as="geometry" />
        </mxCell>
        <mxCell id="w3lTB2FBsFpzuOI5no9S-71" value="Газпром" style="rounded=0;whiteSpace=wrap;html=1;" parent="1" vertex="1">
          <mxGeometry x="190" y="590" width="120" height="60" as="geometry" />
        </mxCell>
        <mxCell id="w3lTB2FBsFpzuOI5no9S-77" value="Pfizer" style="rounded=0;whiteSpace=wrap;html=1;" parent="1" vertex="1">
          <mxGeometry x="350" y="590" width="120" height="60" as="geometry" />
        </mxCell>
        <mxCell id="w3lTB2FBsFpzuOI5no9S-83" value="g1 therapeutics" style="rounded=0;whiteSpace=wrap;html=1;" parent="1" vertex="1">
          <mxGeometry x="530" y="590" width="120" height="60" as="geometry" />
        </mxCell>
        <mxCell id="w3lTB2FBsFpzuOI5no9S-84" style="edgeStyle=orthogonalEdgeStyle;rounded=0;orthogonalLoop=1;jettySize=auto;html=1;exitX=0.5;exitY=1;exitDx=0;exitDy=0;" parent="1" source="w3lTB2FBsFpzuOI5no9S-86" edge="1">
          <mxGeometry relative="1" as="geometry">
            <mxPoint x="1882.066666666667" y="500" as="targetPoint" />
          </mxGeometry>
        </mxCell>
        <mxCell id="w3lTB2FBsFpzuOI5no9S-85" style="edgeStyle=orthogonalEdgeStyle;rounded=0;orthogonalLoop=1;jettySize=auto;html=1;exitX=0.5;exitY=1;exitDx=0;exitDy=0;" parent="1" source="w3lTB2FBsFpzuOI5no9S-86" edge="1">
          <mxGeometry relative="1" as="geometry">
            <mxPoint x="2242.0666666666666" y="500" as="targetPoint" />
          </mxGeometry>
        </mxCell>
        <mxCell id="w3lTB2FBsFpzuOI5no9S-86" value="Частные" style="rounded=0;whiteSpace=wrap;html=1;" parent="1" vertex="1">
          <mxGeometry x="2002" y="350" width="120" height="60" as="geometry" />
        </mxCell>
        <mxCell id="w3lTB2FBsFpzuOI5no9S-89" value="Государственные" style="rounded=0;whiteSpace=wrap;html=1;" parent="1" vertex="1">
          <mxGeometry x="1250" y="350" width="120" height="60" as="geometry" />
        </mxCell>
        <mxCell id="w3lTB2FBsFpzuOI5no9S-90" style="edgeStyle=orthogonalEdgeStyle;rounded=0;orthogonalLoop=1;jettySize=auto;html=1;exitX=0.5;exitY=1;exitDx=0;exitDy=0;" parent="1" target="w3lTB2FBsFpzuOI5no9S-104" edge="1">
          <mxGeometry relative="1" as="geometry">
            <mxPoint x="1125" y="470" as="sourcePoint" />
          </mxGeometry>
        </mxCell>
        <mxCell id="w3lTB2FBsFpzuOI5no9S-91" style="edgeStyle=orthogonalEdgeStyle;rounded=0;orthogonalLoop=1;jettySize=auto;html=1;exitX=0.5;exitY=1;exitDx=0;exitDy=0;" parent="1" target="w3lTB2FBsFpzuOI5no9S-98" edge="1">
          <mxGeometry relative="1" as="geometry">
            <mxPoint x="1125" y="470" as="sourcePoint" />
          </mxGeometry>
        </mxCell>
        <mxCell id="w3lTB2FBsFpzuOI5no9S-98" value="ОФЗ на 1 год" style="rounded=0;whiteSpace=wrap;html=1;" parent="1" vertex="1">
          <mxGeometry x="990" y="560" width="120" height="60" as="geometry" />
        </mxCell>
        <mxCell id="w3lTB2FBsFpzuOI5no9S-104" value="ОФЗ на 5 лет" style="rounded=0;whiteSpace=wrap;html=1;" parent="1" vertex="1">
          <mxGeometry x="1135" y="560" width="120" height="60" as="geometry" />
        </mxCell>
        <mxCell id="w3lTB2FBsFpzuOI5no9S-110" value="ОФЗ Беларусь" style="rounded=0;whiteSpace=wrap;html=1;" parent="1" vertex="1">
          <mxGeometry x="1480" y="560" width="120" height="60" as="geometry" />
        </mxCell>
        <mxCell id="w3lTB2FBsFpzuOI5no9S-116" value="ОФЗ Москва" style="rounded=0;whiteSpace=wrap;html=1;" parent="1" vertex="1">
          <mxGeometry x="1310" y="560" width="120" height="60" as="geometry" />
        </mxCell>
        <mxCell id="w3lTB2FBsFpzuOI5no9S-117" style="edgeStyle=orthogonalEdgeStyle;rounded=0;orthogonalLoop=1;jettySize=auto;html=1;exitX=0.5;exitY=1;exitDx=0;exitDy=0;" parent="1" target="w3lTB2FBsFpzuOI5no9S-135" edge="1">
          <mxGeometry relative="1" as="geometry">
            <mxPoint x="1882" y="510" as="sourcePoint" />
          </mxGeometry>
        </mxCell>
        <mxCell id="w3lTB2FBsFpzuOI5no9S-118" style="edgeStyle=orthogonalEdgeStyle;rounded=0;orthogonalLoop=1;jettySize=auto;html=1;exitX=0.5;exitY=1;exitDx=0;exitDy=0;" parent="1" target="w3lTB2FBsFpzuOI5no9S-141" edge="1">
          <mxGeometry relative="1" as="geometry">
            <mxPoint x="1882" y="510" as="sourcePoint" />
          </mxGeometry>
        </mxCell>
        <mxCell id="w3lTB2FBsFpzuOI5no9S-119" style="edgeStyle=orthogonalEdgeStyle;rounded=0;orthogonalLoop=1;jettySize=auto;html=1;exitX=0.5;exitY=1;exitDx=0;exitDy=0;" parent="1" target="w3lTB2FBsFpzuOI5no9S-129" edge="1">
          <mxGeometry relative="1" as="geometry">
            <mxPoint x="1882" y="510" as="sourcePoint" />
          </mxGeometry>
        </mxCell>
        <mxCell id="w3lTB2FBsFpzuOI5no9S-121" style="edgeStyle=orthogonalEdgeStyle;rounded=0;orthogonalLoop=1;jettySize=auto;html=1;exitX=0.5;exitY=1;exitDx=0;exitDy=0;" parent="1" target="w3lTB2FBsFpzuOI5no9S-153" edge="1">
          <mxGeometry relative="1" as="geometry">
            <mxPoint x="2242" y="510" as="sourcePoint" />
          </mxGeometry>
        </mxCell>
        <mxCell id="w3lTB2FBsFpzuOI5no9S-122" style="edgeStyle=orthogonalEdgeStyle;rounded=0;orthogonalLoop=1;jettySize=auto;html=1;exitX=0.5;exitY=1;exitDx=0;exitDy=0;" parent="1" target="w3lTB2FBsFpzuOI5no9S-147" edge="1">
          <mxGeometry relative="1" as="geometry">
            <mxPoint x="2242" y="510" as="sourcePoint" />
          </mxGeometry>
        </mxCell>
        <mxCell id="w3lTB2FBsFpzuOI5no9S-129" value="Пятерочка" style="rounded=0;whiteSpace=wrap;html=1;" parent="1" vertex="1">
          <mxGeometry x="1962" y="600" width="120" height="60" as="geometry" />
        </mxCell>
        <mxCell id="w3lTB2FBsFpzuOI5no9S-135" value="Магнит" style="rounded=0;whiteSpace=wrap;html=1;" parent="1" vertex="1">
          <mxGeometry x="1822" y="600" width="120" height="60" as="geometry" />
        </mxCell>
        <mxCell id="w3lTB2FBsFpzuOI5no9S-141" value="Камаз&lt;span style=&quot;white-space: pre;&quot;&gt;&#x9;&lt;/span&gt;" style="rounded=0;whiteSpace=wrap;html=1;" parent="1" vertex="1">
          <mxGeometry x="1682" y="600" width="120" height="60" as="geometry" />
        </mxCell>
        <mxCell id="w3lTB2FBsFpzuOI5no9S-147" value="Энергорос" style="rounded=0;whiteSpace=wrap;html=1;" parent="1" vertex="1">
          <mxGeometry x="2252" y="600" width="120" height="60" as="geometry" />
        </mxCell>
        <mxCell id="w3lTB2FBsFpzuOI5no9S-153" value="Русатом" style="rounded=0;whiteSpace=wrap;html=1;" parent="1" vertex="1">
          <mxGeometry x="2112" y="600" width="120" height="60" as="geometry" />
        </mxCell>
        <mxCell id="w3lTB2FBsFpzuOI5no9S-159" value="Microsoft" style="rounded=0;whiteSpace=wrap;html=1;" parent="1" vertex="1">
          <mxGeometry x="730" y="590" width="120" height="60" as="geometry" />
        </mxCell>
        <mxCell id="w3lTB2FBsFpzuOI5no9S-255" style="edgeStyle=orthogonalEdgeStyle;rounded=0;orthogonalLoop=1;jettySize=auto;html=1;exitX=0.5;exitY=1;exitDx=0;exitDy=0;entryX=0.5;entryY=0;entryDx=0;entryDy=0;" parent="1" source="w3lTB2FBsFpzuOI5no9S-256" target="w3lTB2FBsFpzuOI5no9S-159" edge="1">
          <mxGeometry relative="1" as="geometry" />
        </mxCell>
        <mxCell id="w3lTB2FBsFpzuOI5no9S-256" value="IT" style="rounded=0;whiteSpace=wrap;html=1;" parent="1" vertex="1">
          <mxGeometry x="730" y="440" width="120" height="60" as="geometry" />
        </mxCell>
        <mxCell id="w3lTB2FBsFpzuOI5no9S-257" style="edgeStyle=orthogonalEdgeStyle;rounded=0;orthogonalLoop=1;jettySize=auto;html=1;exitX=0.5;exitY=1;exitDx=0;exitDy=0;" parent="1" target="w3lTB2FBsFpzuOI5no9S-116" edge="1">
          <mxGeometry relative="1" as="geometry">
            <mxPoint x="1455" y="470" as="sourcePoint" />
          </mxGeometry>
        </mxCell>
        <mxCell id="w3lTB2FBsFpzuOI5no9S-258" style="edgeStyle=orthogonalEdgeStyle;rounded=0;orthogonalLoop=1;jettySize=auto;html=1;exitX=0.5;exitY=1;exitDx=0;exitDy=0;" parent="1" target="w3lTB2FBsFpzuOI5no9S-110" edge="1">
          <mxGeometry relative="1" as="geometry">
            <mxPoint x="1455" y="470" as="sourcePoint" />
          </mxGeometry>
        </mxCell>
        <mxCell id="w3lTB2FBsFpzuOI5no9S-262" value="1 рискованность&lt;br&gt;" style="text;html=1;strokeColor=none;fillColor=none;align=center;verticalAlign=middle;whiteSpace=wrap;rounded=0;" parent="1" vertex="1">
          <mxGeometry x="-160" y="1060" width="60" height="30" as="geometry" />
        </mxCell>
        <mxCell id="w3lTB2FBsFpzuOI5no9S-263" value="2 возраст" style="text;html=1;strokeColor=none;fillColor=none;align=center;verticalAlign=middle;whiteSpace=wrap;rounded=0;" parent="1" vertex="1">
          <mxGeometry x="-180" y="1020" width="60" height="30" as="geometry" />
        </mxCell>
        <mxCell id="w3lTB2FBsFpzuOI5no9S-264" value="3 желаемая доходность" style="text;html=1;strokeColor=none;fillColor=none;align=center;verticalAlign=middle;whiteSpace=wrap;rounded=0;" parent="1" vertex="1">
          <mxGeometry x="-260" y="1030" width="60" height="30" as="geometry" />
        </mxCell>
        <mxCell id="w3lTB2FBsFpzuOI5no9S-265" value="4 присутствие дивидендов" style="text;html=1;strokeColor=none;fillColor=none;align=center;verticalAlign=middle;whiteSpace=wrap;rounded=0;" parent="1" vertex="1">
          <mxGeometry x="-260" y="1080" width="60" height="30" as="geometry" />
        </mxCell>
        <mxCell id="w3lTB2FBsFpzuOI5no9S-266" value="5 долгосрочность" style="text;html=1;strokeColor=none;fillColor=none;align=center;verticalAlign=middle;whiteSpace=wrap;rounded=0;" parent="1" vertex="1">
          <mxGeometry x="-160" y="1120" width="60" height="30" as="geometry" />
        </mxCell>
        <mxCell id="w3lTB2FBsFpzuOI5no9S-267" value="" style="endArrow=none;html=1;rounded=0;" parent="1" edge="1">
          <mxGeometry width="50" height="50" relative="1" as="geometry">
            <mxPoint x="1310" y="430" as="sourcePoint" />
            <mxPoint x="1460" y="470" as="targetPoint" />
            <Array as="points">
              <mxPoint x="1460" y="430" />
            </Array>
          </mxGeometry>
        </mxCell>
        <mxCell id="w3lTB2FBsFpzuOI5no9S-268" value="" style="endArrow=none;html=1;rounded=0;entryX=0.5;entryY=1;entryDx=0;entryDy=0;" parent="1" target="w3lTB2FBsFpzuOI5no9S-89" edge="1">
          <mxGeometry width="50" height="50" relative="1" as="geometry">
            <mxPoint x="1120" y="470" as="sourcePoint" />
            <mxPoint x="1180" y="410" as="targetPoint" />
            <Array as="points">
              <mxPoint x="1120" y="430" />
              <mxPoint x="1310" y="430" />
            </Array>
          </mxGeometry>
        </mxCell>
        <mxCell id="w3lTB2FBsFpzuOI5no9S-269" value="6 количество денег&lt;br&gt;" style="text;html=1;strokeColor=none;fillColor=none;align=center;verticalAlign=middle;whiteSpace=wrap;rounded=0;" parent="1" vertex="1">
          <mxGeometry x="-70" y="1020" width="60" height="30" as="geometry" />
        </mxCell>
        <mxCell id="jGdK0NWtII-RxkaI67nt-1" value="Фьючерсы" style="rounded=0;whiteSpace=wrap;html=1;" vertex="1" parent="1">
          <mxGeometry x="-970" y="200" width="120" height="60" as="geometry" />
        </mxCell>
        <mxCell id="jGdK0NWtII-RxkaI67nt-2" value="Опционы" style="rounded=0;whiteSpace=wrap;html=1;" vertex="1" parent="1">
          <mxGeometry x="-1740" y="220" width="120" height="60" as="geometry" />
        </mxCell>
        <mxCell id="jGdK0NWtII-RxkaI67nt-3" style="edgeStyle=orthogonalEdgeStyle;rounded=0;orthogonalLoop=1;jettySize=auto;html=1;exitX=0.5;exitY=1;exitDx=0;exitDy=0;" edge="1" parent="1">
          <mxGeometry relative="1" as="geometry">
            <mxPoint x="250" y="150" as="sourcePoint" />
            <mxPoint x="-920" y="200" as="targetPoint" />
          </mxGeometry>
        </mxCell>
        <mxCell id="jGdK0NWtII-RxkaI67nt-4" style="edgeStyle=orthogonalEdgeStyle;rounded=0;orthogonalLoop=1;jettySize=auto;html=1;exitX=0.5;exitY=1;exitDx=0;exitDy=0;" edge="1" parent="1">
          <mxGeometry relative="1" as="geometry">
            <mxPoint x="-230" y="150" as="sourcePoint" />
            <mxPoint x="-1680" y="210" as="targetPoint" />
          </mxGeometry>
        </mxCell>
        <mxCell id="jGdK0NWtII-RxkaI67nt-5" value="Text" style="edgeLabel;html=1;align=center;verticalAlign=middle;resizable=0;points=[];" vertex="1" connectable="0" parent="jGdK0NWtII-RxkaI67nt-4">
          <mxGeometry x="-0.3154" y="6" relative="1" as="geometry">
            <mxPoint x="-1" as="offset" />
          </mxGeometry>
        </mxCell>
        <mxCell id="jGdK0NWtII-RxkaI67nt-8" style="edgeStyle=orthogonalEdgeStyle;rounded=0;orthogonalLoop=1;jettySize=auto;html=1;exitX=0.5;exitY=1;exitDx=0;exitDy=0;" edge="1" parent="1" target="jGdK0NWtII-RxkaI67nt-11">
          <mxGeometry relative="1" as="geometry">
            <mxPoint x="-920" y="270" as="sourcePoint" />
          </mxGeometry>
        </mxCell>
        <mxCell id="jGdK0NWtII-RxkaI67nt-9" style="edgeStyle=orthogonalEdgeStyle;rounded=0;orthogonalLoop=1;jettySize=auto;html=1;exitX=0.5;exitY=1;exitDx=0;exitDy=0;" edge="1" parent="1" target="jGdK0NWtII-RxkaI67nt-12">
          <mxGeometry relative="1" as="geometry">
            <mxPoint x="-920" y="270" as="sourcePoint" />
          </mxGeometry>
        </mxCell>
        <mxCell id="jGdK0NWtII-RxkaI67nt-10" style="edgeStyle=orthogonalEdgeStyle;rounded=0;orthogonalLoop=1;jettySize=auto;html=1;exitX=0.5;exitY=1;exitDx=0;exitDy=0;" edge="1" parent="1" target="jGdK0NWtII-RxkaI67nt-13">
          <mxGeometry relative="1" as="geometry">
            <mxPoint x="-920" y="270" as="sourcePoint" />
          </mxGeometry>
        </mxCell>
        <mxCell id="jGdK0NWtII-RxkaI67nt-11" value="12мес" style="rounded=0;whiteSpace=wrap;html=1;" vertex="1" parent="1">
          <mxGeometry x="-840" y="360" width="120" height="60" as="geometry" />
        </mxCell>
        <mxCell id="jGdK0NWtII-RxkaI67nt-12" value="6мес" style="rounded=0;whiteSpace=wrap;html=1;" vertex="1" parent="1">
          <mxGeometry x="-980" y="360" width="120" height="60" as="geometry" />
        </mxCell>
        <mxCell id="jGdK0NWtII-RxkaI67nt-13" value="3мес" style="rounded=0;whiteSpace=wrap;html=1;" vertex="1" parent="1">
          <mxGeometry x="-1140" y="360" width="120" height="60" as="geometry" />
        </mxCell>
        <mxCell id="jGdK0NWtII-RxkaI67nt-16" style="edgeStyle=orthogonalEdgeStyle;rounded=0;orthogonalLoop=1;jettySize=auto;html=1;exitX=0.5;exitY=1;exitDx=0;exitDy=0;" edge="1" parent="1" target="jGdK0NWtII-RxkaI67nt-19">
          <mxGeometry relative="1" as="geometry">
            <mxPoint x="-1140" y="515" as="sourcePoint" />
            <Array as="points">
              <mxPoint x="-1140" y="530" />
              <mxPoint x="-1140" y="530" />
            </Array>
          </mxGeometry>
        </mxCell>
        <mxCell id="jGdK0NWtII-RxkaI67nt-17" style="edgeStyle=orthogonalEdgeStyle;rounded=0;orthogonalLoop=1;jettySize=auto;html=1;exitX=0.5;exitY=1;exitDx=0;exitDy=0;" edge="1" parent="1" target="jGdK0NWtII-RxkaI67nt-20">
          <mxGeometry relative="1" as="geometry">
            <mxPoint x="-1140" y="515" as="sourcePoint" />
          </mxGeometry>
        </mxCell>
        <mxCell id="jGdK0NWtII-RxkaI67nt-19" value="Медь" style="rounded=0;whiteSpace=wrap;html=1;" vertex="1" parent="1">
          <mxGeometry x="-1200" y="605" width="120" height="60" as="geometry" />
        </mxCell>
        <mxCell id="jGdK0NWtII-RxkaI67nt-20" value="Золото" style="rounded=0;whiteSpace=wrap;html=1;" vertex="1" parent="1">
          <mxGeometry x="-1360" y="605" width="120" height="60" as="geometry" />
        </mxCell>
        <mxCell id="jGdK0NWtII-RxkaI67nt-21" style="edgeStyle=orthogonalEdgeStyle;rounded=0;orthogonalLoop=1;jettySize=auto;html=1;exitX=0.5;exitY=1;exitDx=0;exitDy=0;exitPerimeter=0;" edge="1" parent="1" source="jGdK0NWtII-RxkaI67nt-13">
          <mxGeometry relative="1" as="geometry">
            <mxPoint x="-1070" y="430" as="sourcePoint" />
            <mxPoint x="-1220" y="510" as="targetPoint" />
          </mxGeometry>
        </mxCell>
        <mxCell id="jGdK0NWtII-RxkaI67nt-26" style="edgeStyle=orthogonalEdgeStyle;rounded=0;orthogonalLoop=1;jettySize=auto;html=1;exitX=0.5;exitY=1;exitDx=0;exitDy=0;" edge="1" parent="1" target="jGdK0NWtII-RxkaI67nt-28">
          <mxGeometry relative="1" as="geometry">
            <mxPoint x="-1600" y="290" as="sourcePoint" />
            <Array as="points">
              <mxPoint x="-1600" y="305" />
              <mxPoint x="-1600" y="305" />
            </Array>
          </mxGeometry>
        </mxCell>
        <mxCell id="jGdK0NWtII-RxkaI67nt-27" style="edgeStyle=orthogonalEdgeStyle;rounded=0;orthogonalLoop=1;jettySize=auto;html=1;exitX=0.5;exitY=1;exitDx=0;exitDy=0;" edge="1" parent="1" target="jGdK0NWtII-RxkaI67nt-29">
          <mxGeometry relative="1" as="geometry">
            <mxPoint x="-1600" y="290" as="sourcePoint" />
          </mxGeometry>
        </mxCell>
        <mxCell id="jGdK0NWtII-RxkaI67nt-28" value="Пут" style="rounded=0;whiteSpace=wrap;html=1;" vertex="1" parent="1">
          <mxGeometry x="-1660" y="380" width="120" height="60" as="geometry" />
        </mxCell>
        <mxCell id="jGdK0NWtII-RxkaI67nt-29" value="Кол" style="rounded=0;whiteSpace=wrap;html=1;" vertex="1" parent="1">
          <mxGeometry x="-1820" y="380" width="120" height="60" as="geometry" />
        </mxCell>
        <mxCell id="jGdK0NWtII-RxkaI67nt-30" style="edgeStyle=orthogonalEdgeStyle;rounded=0;orthogonalLoop=1;jettySize=auto;html=1;exitX=0.5;exitY=1;exitDx=0;exitDy=0;" edge="1" parent="1" target="jGdK0NWtII-RxkaI67nt-32">
          <mxGeometry relative="1" as="geometry">
            <mxPoint x="-1700" y="490" as="sourcePoint" />
            <Array as="points">
              <mxPoint x="-1700" y="505" />
              <mxPoint x="-1700" y="505" />
            </Array>
          </mxGeometry>
        </mxCell>
        <mxCell id="jGdK0NWtII-RxkaI67nt-31" style="edgeStyle=orthogonalEdgeStyle;rounded=0;orthogonalLoop=1;jettySize=auto;html=1;exitX=0.5;exitY=1;exitDx=0;exitDy=0;" edge="1" parent="1" target="jGdK0NWtII-RxkaI67nt-33">
          <mxGeometry relative="1" as="geometry">
            <mxPoint x="-1700" y="490" as="sourcePoint" />
          </mxGeometry>
        </mxCell>
        <mxCell id="jGdK0NWtII-RxkaI67nt-32" value="AMD опц" style="rounded=0;whiteSpace=wrap;html=1;" vertex="1" parent="1">
          <mxGeometry x="-1760" y="580" width="120" height="60" as="geometry" />
        </mxCell>
        <mxCell id="jGdK0NWtII-RxkaI67nt-33" value="Apple опц" style="rounded=0;whiteSpace=wrap;html=1;" vertex="1" parent="1">
          <mxGeometry x="-1920" y="580" width="120" height="60" as="geometry" />
        </mxCell>
      </root>
    </mxGraphModel>
  </diagram>
</mxfile>
